<svg width="1465" height="1076" viewBox="0 0 1465 1076" fill="none" xmlns="http://www.w3.org/2000/svg">
<path d="M21.5 0.5C21.5 0.5 61.2466 98.0094 21.5 128C-33.5 169.5 87.6416 188.351 74.5 232C60.5 278.5 217 193 258.5 270.5C300 348 477 232 552 278.5C627 325 911.1 270.5 917.5 270.5C925.5 270.5 1187.5 313 1191.5 321.5C1195.5 330 1289.5 417.5 1291 427C1292.5 436.5 1333 557 1331.5 569.5C1330 582 1296.5 630.5 1269 641.5C1241.5 652.5 1105 672 1080.5 676C1056 680 853.5 694 826 701C798.5 708 616 724 584 727C552 730 647.5 658 395.5 735.5C143.5 813 120 849.5 107.5 859C95 868.5 59.5 899 51 904.5C42.5 910 9.5 951.5 8 962.5C6.5 973.5 -52.5 997.5 213 1036C478.5 1074.5 301 1145 525.5 1123C750 1101 738.5 1152.5 776 1036C813.5 919.5 834.5 845 934 940.5C1033.5 1036 1029 1058 1080.5 1105C1132 1152 1193 1125 1269 1158C1345 1191 1364 1047.5 1368.5 1055.5C1373 1063.5 1413 1095 1420 1135.5C1425.6 1167.9 1451.67 1156.33 1464 1146.5" stroke="black"/>
</svg>
