<svg width="508" height="171" viewBox="0 0 508 171" fill="none" xmlns="http://www.w3.org/2000/svg">
<path d="M91.5839 11.308C91.1703 7.99891 76.5705 9.58212 73.4623 9.58212C67.255 9.58212 63.759 14.1099 58.7923 16.8691C39.0549 27.8344 17.3639 46.6074 7.39962 66.536C0.365749 80.6037 0.303073 98.8932 6.63257 113.135C11.4812 124.044 20.564 128.642 31.1783 134.229C61.9827 150.441 101.125 161.179 135.114 150.72C168.392 140.481 201.996 116.699 214.984 82.9318C223.493 60.8091 223.994 40.6852 217.573 18.2115C215.483 10.8968 206.857 5.97033 200.314 3.06215C190.72 -1.20166 189.158 8.32466 187.37 14.7597C182.729 31.467 182.91 47.6226 179.987 64.4266C177.566 78.3457 178.762 96.9428 182.288 110.546C186.511 126.832 189.361 144.349 189.959 161.076C190.202 167.875 191.965 168.9 188.616 161.459C186.911 157.669 185.098 152.151 184.781 148.036C184.378 142.795 180.09 132.85 184.014 127.805C186.799 124.224 191.612 113.443 196.862 113.135C207.59 112.504 218.663 121.311 219.299 132.119C219.817 140.927 221.826 161.962 231.38 167.02C240.749 171.981 260.72 169.856 260.72 157.144C260.72 151.112 265.897 144.482 265.897 137.68C265.897 132.612 267.623 127.91 267.623 122.723C267.623 117.94 266.116 116.635 268.486 120.901C271.694 126.675 270.716 134.284 271.075 140.749C271.154 142.174 272.67 148.583 273.664 149.378C276.46 151.615 276.915 151.664 280.567 153.693C283.312 155.217 295.43 158.198 298.305 155.898C302.549 152.503 300.415 141.386 300.415 136.434C300.415 133.062 298.817 116.782 302.141 116.586C308.154 116.233 316.61 115.294 321.892 118.312C332.871 124.586 326.882 144.932 329.851 155.323C331.481 161.031 339.716 161.011 342.219 156.281C345.712 149.683 348.739 142.492 348.739 134.804C348.739 126.653 344.679 113.135 355.643 113.135C364.504 113.135 360.851 119.712 362.642 125.983C365.573 136.242 375.78 159.733 388.434 159.733C394.582 159.733 401.288 158.007 406.556 158.007C412.611 158.007 421.001 159.525 426.404 156.665C438.118 150.463 440.211 141.066 440.211 128.667C440.211 114.731 427.529 102.613 415.665 114.477C410.959 119.183 409.516 144.842 415.185 149.378C426.495 158.425 436.759 145.038 436.759 134.708C436.759 128.217 433.307 118.433 433.307 130.393C433.307 137.108 435.033 144.01 435.033 150.241C435.033 166.021 456.516 161.959 466.962 159.637C479.953 156.75 491.972 154.556 505.794 154.556" stroke="white" stroke-width="3" stroke-linecap="round"/>
</svg>
