<svg width="1432" height="943" viewBox="0 0 1432 943" fill="none" xmlns="http://www.w3.org/2000/svg">
<path d="M743.5 39L743.345 40.994L745.5 41.1613V39H743.5ZM60 216.5L52.6541 194.605L37.3658 211.914L60 216.5ZM1390.5 838.5L1389.48 840.221L1389.48 840.221L1390.5 838.5ZM1134 930.5L1153.92 942.189L1154.08 919.095L1134 930.5ZM741.5 0V39H745.5V0H741.5ZM743.5 39C743.655 37.006 743.651 37.0057 743.643 37.0051C743.636 37.0046 743.625 37.0037 743.61 37.0026C743.581 37.0003 743.537 36.9969 743.479 36.9925C743.363 36.9836 743.19 36.9703 742.96 36.9529C742.502 36.9182 741.818 36.8668 740.918 36.8003C739.117 36.6672 736.451 36.4737 732.985 36.2315C726.053 35.747 715.922 35.0679 703.12 34.2888C677.516 32.7306 641.229 30.7723 598.489 29.1716C513.017 25.9706 401.703 24.1983 298.41 29.9224C246.764 32.7844 197.091 37.5222 153.64 44.9009C110.218 52.2746 72.8773 62.3064 45.9724 75.8176C19.1309 89.297 2.13886 106.53 0.592844 128.52C-0.944282 150.384 12.8883 176 45.1464 206.048L47.8727 203.121C15.8083 173.254 3.17986 148.759 4.58299 128.801C5.97725 108.969 21.3267 92.6704 47.7675 79.3922C74.1451 66.1457 111.027 56.1944 154.31 48.8445C197.562 41.4996 247.073 36.7735 298.632 33.9163C401.748 28.2019 512.923 29.9699 598.339 33.1688C641.043 34.7681 677.298 36.7247 702.877 38.2814C715.666 39.0597 725.785 39.7381 732.706 40.2217C736.167 40.4636 738.828 40.6567 740.623 40.7894C741.521 40.8557 742.202 40.9069 742.658 40.9415C742.886 40.9588 743.058 40.972 743.173 40.9808C743.231 40.9852 743.274 40.9885 743.303 40.9907C743.317 40.9918 743.328 40.9926 743.335 40.9932C743.342 40.9937 743.345 40.994 743.5 39ZM1246.5 490C1244.51 489.808 1244.51 489.81 1244.51 489.812C1244.51 489.814 1244.51 489.818 1244.51 489.822C1244.51 489.831 1244.51 489.843 1244.5 489.859C1244.5 489.891 1244.5 489.938 1244.49 490C1244.48 490.124 1244.46 490.307 1244.44 490.548C1244.4 491.03 1244.34 491.743 1244.28 492.675C1244.14 494.54 1243.96 497.28 1243.8 500.8C1243.47 507.839 1243.19 517.996 1243.38 530.491C1243.75 555.477 1246.01 589.838 1253.54 627.331C1268.59 702.267 1304.78 790.053 1389.48 840.221L1391.52 836.779C1308.22 787.447 1272.41 700.983 1257.46 626.544C1249.99 589.35 1247.75 555.242 1247.37 530.431C1247.19 518.028 1247.47 507.954 1247.79 500.987C1247.96 497.504 1248.13 494.798 1248.27 492.966C1248.33 492.05 1248.39 491.353 1248.43 490.887C1248.45 490.653 1248.46 490.478 1248.48 490.362C1248.48 490.303 1248.48 490.26 1248.49 490.232C1248.49 490.218 1248.49 490.207 1248.49 490.201C1248.49 490.197 1248.49 490.195 1248.49 490.193C1248.49 490.192 1248.49 490.192 1246.5 490ZM1389.48 840.221C1407.78 851.057 1418.74 860.466 1424.01 868.542C1426.63 872.55 1427.79 876.139 1427.83 879.355C1427.88 882.55 1426.84 885.559 1424.74 888.441C1420.45 894.308 1411.85 899.52 1399.77 904.04C1387.76 908.532 1372.64 912.227 1355.67 915.258C1287.76 927.385 1191.57 928.664 1152.01 928.628L1152 932.628C1191.54 932.664 1288.07 931.393 1356.37 919.195C1373.45 916.144 1388.85 912.398 1401.17 907.787C1413.42 903.205 1422.96 897.654 1427.97 890.8C1430.51 887.321 1431.9 883.479 1431.83 879.295C1431.77 875.133 1430.27 870.817 1427.36 866.355C1421.57 857.49 1409.96 847.7 1391.52 836.779L1389.48 840.221ZM581 299H904V295H581V299Z" fill="#F0CB6D"/>
</svg>
